<svg width="32" height="32" viewBox="0 0 32 32" fill="none" xmlns="http://www.w3.org/2000/svg">
<path d="M23.6733 4.65334L18.9596 14.0809L17.6798 13.281L20.4292 2.28308L23.6733 4.65334Z" fill="#CCAA7B"/>
<path d="M19.06 15.9125C19.1831 15.9894 19.296 16.0785 19.3975 16.1778C19.5522 16.3289 19.6806 16.5033 19.7786 16.6938C19.906 16.9416 19.9819 17.2164 19.9972 17.5018C19.999 17.5372 20 17.5728 20 17.6085V18.5167C19.9985 18.7384 19.7647 18.8822 19.5658 18.7828L14.0001 16.0001L13.9999 14.4999C13.9999 14.2278 14.2172 14.0065 14.4877 14H15.4264C15.8012 14 16.1685 14.1053 16.4864 14.304L19.06 15.9125Z" fill="#CCAA7B"/>
<path d="M10.169 14.0845L11.6636 13.0879C12.2386 12.7046 12.9142 12.5 13.6052 12.5H15.4264C15.8731 12.5 16.3137 12.5855 16.725 12.7498L17.9492 0.507635C16.5977 -0.247876 14.9146 -0.16007 13.6402 0.771056L1.65519 9.52777C0.24809 10.5559 -0.340697 12.3782 0.196766 14.0416L4.77465 28.2103C5.31211 29.8738 6.85357 31 8.59283 31H23.4072C25.1464 31 26.6879 29.8738 27.2254 28.2103L30.8263 17.0652L23 17.5L31.7903 14.0815L31.8032 14.0416C32.2026 12.8055 31.9801 11.4817 31.262 10.4612L21.3653 16.6467C21.4536 16.9555 21.5 17.2788 21.5 17.6085V18.5H21.884C22.1892 18.5 22.4903 18.5698 22.7644 18.7042L25.1845 19.8905C26.7471 20.6565 27.5096 22.4542 26.9742 24.11L25.903 27.423C25.5027 28.6611 24.3498 29.5 23.0485 29.5H20.3623C19.9426 29.5 19.5263 29.4245 19.1333 29.2771L15.728 28H14.3108C13.6707 28.9188 12.6092 29.5 11.4381 29.5H8.58792C7.50319 29.5 6.54221 28.8005 6.20888 27.7682L4.3073 21.8794C3.99824 20.9223 4.44803 19.8845 5.35781 19.4557L8.49999 17.9746V16L2.29047 13.1341C2.11339 13.0523 2 12.8751 2 12.6801V11.309C2 11.1196 2.107 10.9465 2.27639 10.8618L2.77639 10.6118C2.91716 10.5414 3.08284 10.5414 3.22361 10.6118L10.169 14.0845Z" fill="#CCAA7B"/>
<path d="M10 18L10.0003 18.3934C10.0003 18.4702 10.0444 18.5402 10.1136 18.5735L10.34 18.6825C10.733 18.8715 10.9581 19.2934 10.8964 19.725L10.0943 25.34C10.0331 25.7684 9.83457 26.1654 9.52855 26.4714L8.25595 27.7439C8.19906 27.8008 8.20067 27.882 8.24012 27.9376C8.34925 27.9781 8.46666 28 8.58792 28H11.4381C11.7365 28 12.0225 27.934 12.2802 27.8142C12.815 27.5658 13.2282 27.086 13.3784 26.4852L14.5802 21.6788C14.814 20.7132 14.303 19.7211 13.3791 19.3515L10 18Z" fill="#CCAA7B"/>
<path d="M21.008 28H23.0485C23.6992 28 24.2756 27.5806 24.4758 26.9615L25.547 23.6485C25.8529 22.7023 25.4172 21.6751 24.5243 21.2374L22.1041 20.051C22.0708 20.0347 22.0359 20.0222 22 20.0136V20.3763C22 20.452 22.0428 20.5213 22.1106 20.5552L22.2243 20.612C22.6694 20.8346 22.8831 21.3506 22.7257 21.8227L21.0746 26.7759C21.0256 26.9232 20.9428 27.057 20.8331 27.1668L20.2561 27.7438C20.1616 27.8383 20.2285 27.9999 20.3621 27.9999H21L21.008 28Z" fill="#CCAA7B"/>
<path d="M20.3947 15.0559C20.5976 15.2462 20.7759 15.459 20.9268 15.6891L29.0497 8.58151L27.2916 7.29697L20.3947 15.0559Z" fill="#CCAA7B"/>
<path d="M16 20L20.0915 21.6366C20.5965 21.8385 20.8474 22.407 20.6565 22.9162L19.7434 25.3511C19.597 25.7414 19.2239 26 18.807 26H15.0001L16 22C16.1642 21.3434 16.1642 20.6565 16 20Z" fill="#CCAA7B"/>
</svg>
